# AST/ASF file generated using VICON BodyLanguage
# -----------------------------------------------
:version 1.10
:name VICON
:units
  mass 1.0
  length 0.45
  angle deg
:documentation
   .ast/.asf automatically generated from VICON data using
   VICON BodyBuilder and BodyLanguage model FoxedUp or BRILLIANT.MOD
:root
   order TX TY TZ RX RY RZ
   axis XYZ
   position 0 0 0  
   orientation 0 0 0 
:bonedata
  begin
     id 1 
     name lhipjoint
     direction 0.57768 -0.667037 0.470475 
     length 2.36008 
     axis 0 0 0  XYZ
  end
  begin
     id 2 
     name lfemur
     direction 0.34202 -0.939693 0  
     length 6.97235  
     axis 0 0 20  XYZ
    dof rx ry rz
    limits (-160.0 20.0)
           (-70.0 70.0)
           (-60.0 70.0)
  end
  begin
     id 3 
     name ltibia
     direction 0.34202 -0.939693 0   
     length 6.93428   
     axis 0 0 20   XYZ
    dof rx
    limits (-10.0 170.0)
  end
  begin
     id 4 
     name lfoot
     direction 0.133018 -0.365463 0.921272   
     length 2.18603   
     axis -90 7.62852e-016 20   XYZ
    dof rx rz
    limits (-45.0 90.0)
           (-70.0 20.0)
  end
  begin
     id 5 
     name ltoes
     direction 1.53519e-011 -4.22055e-011 1   
     length 1.07924   
     axis -90 7.62852e-016 20   XYZ
    dof rx
    limits (-90.0 20.0)
  end
  begin
     id 6 
     name rhipjoint
     direction -0.577712 -0.667019 0.470462   
     length 2.36015  
     axis 0 0 0  XYZ 
  end
  begin
     id 7 
     name rfemur
     direction -0.34202 -0.939693 0   
     length 6.71195   
     axis 0 0 -20   XYZ
    dof rx ry rz
    limits (-160.0 20.0)
           (-70.0 70.0)
           (-70.0 60.0)
  end
  begin
     id 8 
     name rtibia
     direction -0.34202 -0.939693 0   
     length 7.04592   
     axis 0 0 -20   XYZ
    dof rx
    limits (-10.0 170.0)
 end
 begin
     id 9 
     name rfoot
     direction -0.113796 -0.312651 0.943027   
     length 2.03846  
     axis -90 -7.62852e-016 -20   XYZ
    dof rx rz
    limits (-45.0 90.0)
           (-20.0 70.0)
  end
  begin
     id 10 
     name rtoes
     direction -1.53586e-011 -4.218e-011 1   
     length 1.01562   
     axis -90 -7.62852e-016 -20   XYZ
    dof rx
    limits (-90.0 20.0)
  end
  begin
     id 11 
     name lowerback
     direction -0.0417299 0.991937 -0.119667   
     length 2.05257   
     axis 0 0 0   XYZ
    dof rx ry rz
    limits (-20.0 45.0)
           (-30.0 30.0)
           (-30.0 30.0)
  end
  begin
     id 12 
     name upperback
     direction -0.00017666 0.999999 0.00105178   
     length 2.05693   
     axis 0 0 0   XYZ
    dof rx ry rz
    limits (-20.0 45.0)
           (-30.0 30.0)
           (-30.0 30.0)
  end
  begin
     id 13 
     name thorax
     direction 0.0185169 0.998203 0.0569866   
     length 2.0932   
     axis 0 0 0   XYZ
    dof rx ry rz
    limits (-20.0 45.0)
           (-30.0 30.0)
           (-30.0 30.0)
  end
  begin
     id 14 
     name lowerneck
     direction -0.0212406 0.982645 0.184277   
     length 1.72509   
     axis 0 0 0   XYZ
    dof rx ry rz
    limits (-20.0 45.0)
           (-30.0 30.0)
           (-30.0 30.0)
  end
  begin
     id 15 
     name upperneck
     direction 0.00528579 0.965323 -0.261004   
     length 1.76294   
     axis 0 0 0   XYZ
    dof rx ry rz
    limits (-20.0 45.0)
           (-30.0 30.0)
           (-30.0 30.0)
  end
  begin
     id 16
     name head
     direction 0.00695421 0.994078 -0.108445  
     length 1.78678  
     axis 0 0 0   XYZ
    dof rx ry rz
    limits (-20.0 45.0)
           (-30.0 30.0)
           (-30.0 30.0)
  end
  begin
     id 17 
     name lclavicle
     direction 0.97277 0.211305 -0.095232  
     length 3.84823  
     axis 0 0 0   XYZ
    dof ry rz
    limits (-20.0 10.0)
           (0.0 20.0)
  end
  begin
     id 18 
     name lhumerus
     direction 1 -4.48957e-011 -1.98313e-027   
     length 4.97185   
     axis 180 -30 -90   XYZ
    dof rx ry rz
    limits (-60.0 90.0)
           (-90.0 90.0)
           (-90.0 90.0)
  end
  begin
     id 19
     name lradius
     direction 1 -4.4898e-011 7.31063e-027   
     length 3.35811   
     axis 180 -30 -90   XYZ
    dof rx
    limits (-10.0 170.0)
  end
  begin
     id 20
     name lwrist
     direction 1 -4.48938e-011 9.95048e-027   
     length 1.67905   
     axis -8.75986e-015 90 90   XYZ
    dof ry
    limits (-180.0 0.0)
 end
  begin
     id 21 
     name lhand
     direction 1 -4.4901e-011 1.9901e-026   
     length 0.622776   
     axis -1.26985e-014 90 90   XYZ
    dof rx rz
    limits (-90.0 90.0)
           (-45.0 45.0)
  end
  begin
     id 22 
     name lfingers
     direction 1 -4.48961e-011 3.98019e-026   
     length 0.502098   
     axis -2.5397e-014 90 90   XYZ
    dof rx
    limits (0.0 90.0)
  end
  begin
     id 23
     name lthumb
     direction 0.707107 -6.34933e-011 0.707107   
     length 0.720915   
     axis -90 45 2.85299e-015   XYZ
    dof rx rz
    limits (-45.0 45.0)
           (-45.0 45.0)
  end
  begin
     id 24 
     name rclavicle
     direction -0.990867 0.133739 -0.0172226   
     length 3.78845  
     axis 0 0 0   XYZ 
    dof ry rz
    limits (-10.0 20.0)
           (-20.0 0.0)
  end
  begin
     id 25 
     name rhumerus
     direction -1 -4.48972e-011 -1.99267e-027  
     length 4.96493   
     axis 180 30 90   XYZ
    dof rx ry rz
    limits (-90.0 60.0)
           (-90.0 90.0)
           (-90.0 90.0)
  end
  begin
     id 26 
     name rradius
     direction -1 -4.48969e-011 8.96093e-027   
     length 3.34929   
     axis 180 30 90   XYZ
    dof rx
    limits (-10.0 170.0)
  end
  begin
     id 27 
     name rwrist
     direction -1 -4.48953e-011 9.95048e-027   
     length 1.67464   
     axis -8.75986e-015 -90 -90   XYZ
    dof ry
    limits (-180.0 0.0)
  end
  begin
     id 28
     name rhand
     direction -1 -4.49001e-011 1.9901e-026   
     length 0.638041   
     axis -1.26985e-014 -90 -90   XYZ
    dof rx rz
    limits (-90.0 90.0)
           (-45.0 45.0)
  end
  begin
     id 29
     name rfingers
     direction -1 -4.48967e-011 3.98019e-026   
     length 0.514405   
     axis -2.5397e-014 -90 -90   XYZ
    dof rx
    limits (0.0 90.0)
  end
  begin
     id 30
     name rthumb
     direction -0.707107 -6.34904e-011 0.707107   
     length 0.738586   
     axis -90 -45 -2.85299e-015   XYZ
    dof rx rz
    limits (-45.0 45.0)
           (-45.0 45.0)
  end
:hierarchy
  begin
    root lhipjoint rhipjoint lowerback
    lhipjoint lfemur
    lfemur ltibia
    ltibia lfoot
    lfoot ltoes
    rhipjoint rfemur
    rfemur rtibia
    rtibia rfoot
    rfoot rtoes
    lowerback upperback
    upperback thorax
    thorax lowerneck lclavicle rclavicle
    lowerneck upperneck
    upperneck head
    lclavicle lhumerus
    lhumerus lradius
    lradius lwrist
    lwrist lhand lthumb
    lhand lfingers
    rclavicle rhumerus
    rhumerus rradius
    rradius rwrist
    rwrist rhand rthumb
    rhand rfingers
  end

#!OML:ASF E:\Mandelcareful walks\Project 1\Capture day 1\Session 1\Subject1.ASF
:FULLY-SPECIFIED
:DEGREES
123
root 4.304 16.8865 -1.4431 -147.496 -86.0192 153.671
lowerback -8.96459 0.396442 -5.69443
upperback 1.29734 1.19743 -0.726247
thorax 6.30792 0.390971 2.61032
lowerneck -26.3673 -1.41594 -5.22607
upperneck 7.56166 -0.309405 0.213444
head 6.46265 -0.36562 0.845616
rclavicle 5.24295e-015 2.42517e-014
rhumerus -19.6714 29.5712 -43.9115
rradius 43.995
rwrist 15.9504
rhand 20.49 -61.4231
rfingers 7.12502
rthumb 44.9913 -84.9261
lclavicle 5.24295e-015 2.42517e-014
lhumerus -32.88 -8.11844 35.5248
lradius 102.009
lwrist 67.9352
lhand 33.2778 -0.118623
lfingers 7.12502
lthumb 56.6272 16.7738
rfemur -10.0049 -3.02552 17.1998
rtibia 22.7902
rfoot -19.5666 -13.8076
rtoes 11.5771
lfemur -10.0202 -3.88389 -20.4667
ltibia 27.9747
lfoot -25.1524 15.1258
ltoes 10.8094
124
root 4.29683 16.8808 -1.43908 -144.47 -86.0786 150.552
lowerback -8.85337 0.388304 -5.77814
upperback 1.24275 1.18771 -0.77776
thorax 6.18715 0.388295 2.59941
lowerneck -26.5122 -1.4176 -5.18771
upperneck 7.58174 -0.268648 -0.138194
head 6.48953 -0.381279 0.7273
rclavicle 1.32192e-014 8.74653e-015
rhumerus -19.7666 29.5934 -43.9851
rradius 42.9086
rwrist 17.6179
rhand 20.4598 -61.3144
rfingers 7.12502
rthumb 44.9632 -84.8284
lclavicle 1.32192e-014 8.74653e-015
lhumerus -32.7492 -10.6489 35.1547
lradius 102.049
lwrist 66.0391
lhand 35.3544 2.60799
lfingers 7.12502
lthumb 58.4455 17.9228
rfemur -9.87539 -3.4305 16.9709
rtibia 22.8623
rfoot -19.6595 -13.4537
rtoes 11.75
lfemur -9.89612 -3.83597 -20.6582
ltibia 27.9385
lfoot -25.0899 14.9395
ltoes 10.7118
125
root 4.29335 16.8774 -1.43621 -142.256 -86.1402 148.309
lowerback -8.89382 0.387944 -5.79962
upperback 1.25853 1.19549 -0.82671
thorax 6.22701 0.390473 2.56181
lowerneck -26.7789 -1.41284 -5.16187
upperneck 7.65755 -0.213292 -0.442934
head 6.5527 -0.387697 0.62773
rclavicle -4.99446e-015 -2.38542e-015
rhumerus -19.764 29.5356 -44.012
rradius 41.8533
rwrist 19.1583
rhand 20.3385 -61.028
rfingers 7.12502
rthumb 44.8502 -84.5864
lclavicle -4.99446e-015 -2.38542e-015
lhumerus -32.3827 -13.3132 34.6385
lradius 101.751
lwrist 64.2719
lhand 36.1821 2.83002
lfingers 7.12502
lthumb 59.1622 17.4608
rfemur -9.83857 -3.56556 16.844
rtibia 22.9258
rfoot -19.7338 -13.4259
rtoes 11.9378
lfemur -9.83402 -3.92692 -20.7797
ltibia 27.9151
lfoot -25.0908 14.8308
ltoes 10.7479
126
root 4.29154 16.8797 -1.43438 -141.135 -86.2399 147.236
lowerback -8.9993 0.381268 -5.74112
upperback 1.27346 1.18978 -0.853328
thorax 6.30497 0.387583 2.50208
lowerneck -26.968 -1.38808 -5.08243
upperneck 7.66699 -0.154287 -0.760142
head 6.58266 -0.390939 0.516235
rclavicle 7.1314e-015 1.19271e-015
rhumerus -19.734 29.4142 -44.0393
rradius 40.8475
rwrist 20.6555
rhand 19.8884 -60.7006
rfingers 7.12502
rthumb 44.4311 -84.4209
lclavicle 7.1314e-015 1.19271e-015
lhumerus -32.092 -15.9504 34.1186
lradius 101.44
lwrist 62.4414
lhand 37.3644 2.51254
lfingers 7.12502
lthumb 60.1768 16.1059
rfemur -9.84758 -3.40788 16.8439
rtibia 22.8927
rfoot -19.7756 -13.7038
rtoes 12.0935
lfemur -9.9082 -4.0269 -20.7815
ltibia 27.9588
lfoot -25.1597 14.7652
ltoes 10.7028
127
root 4.29047 16.8822 -1.43155 -140.47 -86.4221 146.635
lowerback -9.16686 0.346953 -5.59493
upperback 1.32964 1.1422 -0.849584
thorax 6.46641 0.364077 2.4204
lowerneck -27.2248 -1.36249 -5.04157
upperneck 7.7498 -0.085179 -0.998723
head 6.64694 -0.384549 0.437796
rclavicle -1.01877e-015 -2.78299e-015
rhumerus -19.4973 28.9561 -43.9977
rradius 39.7705
rwrist 22.3376
rhand 19.621 -60.6551
rfingers 7.12502
rthumb 44.1819 -84.4698
lclavicle -1.01877e-015 -2.78299e-015
lhumerus -31.8032 -18.4606 33.7038
lradius 101.199
lwrist 60.5148
lhand 38.5776 3.42734
lfingers 7.12502
lthumb 61.2059 15.8761
rfemur -9.8335 -3.32121 16.921
rtibia 22.7513
rfoot -19.7322 -13.9456
rtoes 12.0696
lfemur -10.0619 -4.15747 -20.6918
ltibia 28.0769
lfoot -25.2651 14.6929
ltoes 10.722
128
root 4.28469 16.883 -1.43297 -143.06 -86.6345 149.212
lowerback -9.41672 0.350444 -5.31038
upperback 1.48299 1.13559 -0.793113
thorax 6.77606 0.36008 2.32421
lowerneck -27.5915 -1.29537 -4.96872
upperneck 7.88011 0.035752 -1.23489
head 6.74249 -0.354173 0.361234
rclavicle -7.7526e-015 -4.37326e-015
rhumerus -19.1541 28.3005 -43.921
rradius 38.6834
rwrist 23.877
rhand 19.1347 -60.6882
rfingers 7.12502
rthumb 43.7282 -84.6717
lclavicle -7.7526e-015 -4.37326e-015
lhumerus -31.4305 -20.9875 33.3086
lradius 100.848
lwrist 58.4393
lhand 39.2023 4.55812
lfingers 7.12502
lthumb 61.7307 16.3833
rfemur -9.74621 -2.91386 17.2266
rtibia 22.6707
rfoot -19.8392 -14.4092
rtoes 11.8812
lfemur -10.1061 -4.23244 -20.3994
ltibia 28.1638
lfoot -25.2744 14.6907
ltoes 10.6732
129
root 4.27981 16.8804 -1.4323 -146.224 -86.8303 152.271
lowerback -9.54573 0.382828 -4.99106
upperback 1.63732 1.15417 -0.753295
thorax 7.01707 0.372924 2.19279
lowerneck -27.9343 -1.22318 -4.77752
upperneck 7.99007 0.132978 -1.55926
head 6.82908 -0.340127 0.233574
rclavicle 3.97569e-015 1.07344e-014
rhumerus -18.9249 27.8092 -43.8548
rradius 37.6661
rwrist 25.1718
rhand 18.2449 -60.2842
rfingers 7.12502
rthumb 42.8967 -84.5666
lclavicle 3.97569e-015 1.07344e-014
lhumerus -30.9235 -23.6026 32.9729
lradius 100.241
lwrist 56.0733
lhand 39.6906 5.2058
lfingers 7.12502
lthumb 62.1382 16.5265
rfemur -9.558 -2.82763 17.5083
rtibia 22.6008
rfoot -19.8767 -14.564
rtoes 11.7274
lfemur -10.0363 -4.17693 -20.1196
ltibia 28.2459
lfoot -25.2357 14.5876
ltoes 10.7676
130
root 4.28588 16.8772 -1.41623 -137.275 -86.8413 143.321
lowerback -9.54086 0.31273 -5.14868
upperback 1.67157 1.08974 -0.922384
thorax 7.05697 0.33599 2.09306
lowerneck -28.2656 -1.16894 -4.61636
upperneck 8.17293 0.214165 -1.83963
head 6.9392 -0.331518 0.122965
rclavicle -4.34841e-015 -9.93923e-015
rhumerus -18.6929 27.4418 -43.7219
rradius 36.6977
rwrist 26.3768
rhand 17.4763 -59.8944
rfingers 7.12502
rthumb 42.1772 -84.4248
lclavicle -4.34841e-015 -9.93923e-015
lhumerus -30.4557 -26.2781 32.7078
lradius 99.5068
lwrist 53.4865
lhand 40.0264 5.38594
lfingers 7.12502
lthumb 62.4171 16.3506
rfemur -9.54663 -4.21163 16.9266
rtibia 22.5542
rfoot -19.4966 -13.5901
rtoes 11.4172
lfemur -10.0928 -4.12946 -20.6283
ltibia 28.2932
lfoot -25.1767 14.3116
ltoes 10.7141
131
root 4.28495 16.8767 -1.41835 -139.216 -86.8764 145.227
lowerback -9.54508 0.322655 -5.05858
upperback 1.70713 1.09024 -0.852339
thorax 7.09721 0.337357 2.11678
lowerneck -28.5354 -1.10742 -4.64365
upperneck 8.26791 0.342522 -1.97732
head 7.00972 -0.291297 0.0963579
rclavicle -2.98177e-016 -2.70347e-014
rhumerus -18.2696 27.1153 -43.4613
rradius 35.7438
rwrist 27.464
rhand 16.7673 -59.8968
rfingers 7.12502
rthumb 41.5126 -84.648
lclavicle -2.98177e-016 -2.70347e-014
lhumerus -30.3414 -28.9395 32.5475
lradius 98.7947
lwrist 50.9047
lhand 40.2722 5.04537
lfingers 7.12502
lthumb 62.6204 15.7447
rfemur -9.50556 -3.62644 17.1004
rtibia 22.5213
rfoot -19.4898 -14.1804
rtoes 11.469
lfemur -10.0686 -4.1011 -20.5018
ltibia 28.3292
lfoot -25.2113 14.3247
ltoes 10.4315
132
root 4.29045 16.8804 -1.41568 -141.978 -86.9708 148.028
lowerback -9.30242 0.350203 -4.79579
upperback 1.50734 1.06976 -0.788476
thorax 6.74847 0.348906 2.02889
lowerneck -28.4839 -1.08724 -4.74507
upperneck 8.38037 0.4208 -2.05243
head 7.04004 -0.266926 0.0975714
rclavicle -2.5842e-015 3.97569e-015
rhumerus -18.2597 26.9108 -43.3854
rradius 34.9152
rwrist 28.4975
rhand 15.8592 -59.7236
rfingers 7.12502
rthumb 40.6598 -84.7471
lclavicle -2.5842e-015 3.97569e-015
lhumerus -30.3733 -31.929 32.4381
lradius 98.0284
lwrist 48.4783
lhand 40.3978 4.96334
lfingers 7.12502
lthumb 62.7241 15.5255
rfemur -9.58052 -3.37806 17.3131
rtibia 22.5194
rfoot -19.4834 -14.4203
rtoes 11.8168
lfemur -10.1331 -4.1505 -20.3163
ltibia 28.3455
lfoot -25.1943 14.3774
ltoes 10.5229
133
root 4.3008 16.8831 -1.40868 -141.385 -87.0924 147.517
lowerback -8.6455 0.374852 -4.57329
upperback 0.947435 1.01789 -0.803667
thorax 5.78688 0.362031 1.86815
lowerneck -28.1716 -1.07779 -4.78951
upperneck 8.82255 0.483283 -2.19095
head 7.14511 -0.255393 0.0677797
rclavicle 1.19519e-014 -1.03368e-014
rhumerus -18.8493 26.8671 -43.5419
rradius 34.196
rwrist 29.7215
rhand 14.7728 -59.4326
rfingers 7.12502
rthumb 39.6377 -84.7669
lclavicle 1.19519e-014 -1.03368e-014
lhumerus -30.5502 -35.5552 32.4716
lradius 97.2207
lwrist 46.3231
lhand 40.1897 5.33695
lfingers 7.12502
lthumb 62.5523 16.1258
rfemur -9.58335 -3.2219 17.3507
rtibia 22.4032
rfoot -19.6026 -14.5309
rtoes 12.191
lfemur -10.3213 -4.20647 -20.2713
ltibia 28.4248
lfoot -25.1465 14.2969
ltoes 11.1234
134
root 4.30699 16.8826 -1.40249 -138.308 -87.2907 144.468
lowerback -9.58155 0.226767 -4.43645
upperback 1.66151 0.885519 -0.790814
thorax 7.0895 0.263495 1.80128
lowerneck -28.9715 -1.00123 -4.70868
upperneck 8.55397 0.610033 -2.42979
head 7.17085 -0.227066 -0.0131076
rclavicle -9.98893e-015 3.18055e-015
rhumerus -17.3582 25.4898 -42.9422
rradius 33.1104
rwrist 31.0755
rhand 13.8119 -59.2805
rfingers 7.12502
rthumb 38.7322 -84.8768
lclavicle -9.98893e-015 3.18055e-015
lhumerus -29.5716 -37.3678 31.9523
lradius 96.1541
lwrist 44.5511
lhand 40.0166 5.64381
lfingers 7.12502
lthumb 62.4089 16.6191
rfemur -9.51355 -3.02887 17.3507
rtibia 22.3164
rfoot -19.6573 -14.9166
rtoes 12.1055
lfemur -10.4495 -4.25096 -20.2698
ltibia 28.482
lfoot -25.0376 14.125
ltoes 11.504
135
root 4.31179 16.8833 -1.4006 -138.201 -87.4749 144.369
lowerback -8.91987 0.251037 -4.26129
upperback 1.07141 0.835512 -0.71025
thorax 6.08778 0.273654 1.77027
lowerneck -28.436 -0.961371 -4.81134
upperneck 8.92697 0.733805 -2.65863
head 7.22137 -0.195052 -0.0546517
rclavicle 3.95085e-015 -3.97569e-016
rhumerus -17.9009 25.2983 -42.898
rradius 32.325
rwrist 32.4381
rhand 13.133 -58.9993
rfingers 7.12502
rthumb 38.0915 -84.7736
lclavicle 3.95085e-015 -3.97569e-016
lhumerus -30.3829 -40.4846 32.5974
lradius 95.4208
lwrist 42.8253
lhand 40.569 5.91902
lfingers 7.12502
lthumb 62.8651 16.2924
rfemur -9.51203 -2.59511 17.4992
rtibia 22.2817
rfoot -19.7005 -15.5537
rtoes 11.9914
lfemur -10.5142 -4.25589 -20.1321
ltibia 28.5076
lfoot -25.0239 13.9711
ltoes 11.5646
136
root 4.31344 16.8848 -1.39807 -137.553 -87.4326 143.741
lowerback -9.39815 0.231272 -4.24241
upperback 1.39885 0.84314 -0.683132
thorax 6.70729 0.260528 1.79617
lowerneck -28.9565 -0.861032 -4.70135
upperneck 8.9661 0.906355 -3.002
head 7.31352 -0.156544 -0.167813
rclavicle 4.47266e-015 -2.36554e-014
rhumerus -17.05 24.3292 -42.446
rradius 31.4171
rwrist 33.479
rhand 12.5754 -58.8826
rfingers 7.12502
rthumb 37.5648 -84.799
lclavicle 4.47266e-015 -2.36554e-014
lhumerus -30.1127 -42.4072 32.6632
lradius 94.3117
lwrist 40.616
lhand 40.4457 5.61435
lfingers 7.12502
lthumb 62.7636 16.1239
rfemur -9.5596 -2.41632 17.4374
rtibia 22.2572
rfoot -19.7532 -15.7598
rtoes 11.9188
lfemur -10.5392 -4.07363 -20.1891
ltibia 28.5304
lfoot -25.0694 13.7972
ltoes 11.4336
